<svg width="30" height="30" viewBox="0 0 30 30" fill="none" xmlns="http://www.w3.org/2000/svg">
<path d="M23 3C22.9576 2.99991 22.9152 3.00252 22.873 3.00781L22.8516 3.01172C22.8418 3.01288 22.832 3.01418 22.8223 3.01563L9.85742 5.00977C9.61929 5.04407 9.4015 5.16308 9.24402 5.34496C9.08653 5.52685 8.99989 5.75941 9 6V19.2109C9 20.3999 8.86391 21 6.50391 21C3.89791 21 3 22.5208 3 24.0078C3 25.2168 3.706 27.0078 6.5 27.0078C9.629 27.0078 11 25.0906 11 23.3926V10.4395L22 8.64649V17.2109C22 18.3999 21.8639 19.002 19.5039 19.002C16.8979 19.001 16 20.5208 16 22.0078C16 23.2168 16.706 25.0078 19.5 25.0078C22.629 25.0078 24 22.9011 24 21.2031V4C24 3.73479 23.8946 3.48043 23.7071 3.2929C23.5196 3.10536 23.2652 3 23 3V3Z" fill="white"/>
</svg>
