<svg width="30" height="30" viewBox="0 0 30 30" fill="none" xmlns="http://www.w3.org/2000/svg">
<path d="M9.99032 3.99023C9.79139 3.99029 9.59699 4.04967 9.43198 4.16078C9.26697 4.27189 9.13885 4.42969 9.06399 4.614C8.98913 4.79832 8.97094 5.00077 9.01175 5.19547C9.05255 5.39017 9.1505 5.56828 9.29306 5.70703L18.586 15L9.29306 24.293C9.19708 24.3851 9.12046 24.4955 9.06767 24.6176C9.01489 24.7397 8.987 24.8712 8.98565 25.0042C8.98429 25.1373 9.0095 25.2692 9.05979 25.3924C9.11008 25.5156 9.18444 25.6275 9.27852 25.7216C9.3726 25.8156 9.4845 25.89 9.60768 25.9403C9.73086 25.9906 9.86283 26.0158 9.99587 26.0144C10.1289 26.0131 10.2603 25.9852 10.3825 25.9324C10.5046 25.8796 10.615 25.803 10.7071 25.707L20.7071 15.707C20.8946 15.5195 20.9999 15.2652 20.9999 15C20.9999 14.7348 20.8946 14.4805 20.7071 14.293L10.7071 4.29297C10.6139 4.19717 10.5025 4.12103 10.3794 4.06903C10.2563 4.01704 10.124 3.99024 9.99032 3.99023V3.99023Z" fill="white"/>
</svg>
