<svg width="30" height="30" viewBox="0 0 30 30" fill="none" xmlns="http://www.w3.org/2000/svg">
<path d="M6.23784 4.98773C5.98917 4.98779 5.74617 5.06201 5.53991 5.20091C5.33365 5.3398 5.17349 5.53705 5.07992 5.76744C4.98635 5.99783 4.96362 6.25089 5.01462 6.49427C5.06563 6.73765 5.18805 6.96029 5.36626 7.13372L13.2325 14.9999L5.36626 22.8661C5.24629 22.9813 5.15051 23.1193 5.08453 23.2719C5.01855 23.4246 4.98369 23.5889 4.982 23.7552C4.98031 23.9215 5.01181 24.0865 5.07468 24.2404C5.13754 24.3944 5.23049 24.5343 5.34809 24.6519C5.46569 24.7695 5.60557 24.8624 5.75954 24.9253C5.91351 24.9882 6.07848 25.0197 6.24478 25.018C6.41108 25.0163 6.57537 24.9814 6.72803 24.9154C6.88069 24.8495 7.01865 24.7537 7.13383 24.6337L15 16.7675L22.8663 24.6337C22.9814 24.7537 23.1194 24.8495 23.2721 24.9155C23.4247 24.9814 23.589 25.0163 23.7553 25.018C23.9216 25.0197 24.0866 24.9882 24.2406 24.9253C24.3945 24.8624 24.5344 24.7695 24.652 24.6519C24.7696 24.5343 24.8626 24.3944 24.9254 24.2404C24.9883 24.0865 25.0198 23.9215 25.0181 23.7552C25.0164 23.5889 24.9815 23.4246 24.9156 23.2719C24.8496 23.1193 24.7538 22.9813 24.6338 22.8661L16.7676 14.9999L24.6338 7.13372C24.8145 6.95814 24.9378 6.73209 24.9878 6.48519C25.0377 6.23829 25.0119 5.98206 24.9138 5.75008C24.8156 5.5181 24.6496 5.32119 24.4376 5.18515C24.2256 5.04911 23.9774 4.9803 23.7256 4.98773C23.4009 4.9974 23.0927 5.13313 22.8663 5.36614L15 13.2324L7.13383 5.36614C7.01735 5.2464 6.87804 5.15122 6.72415 5.08622C6.57025 5.02123 6.40489 4.98774 6.23784 4.98773Z" fill="white"/>
</svg>
