<svg width="30" height="30" viewBox="0 0 30 30" fill="none" xmlns="http://www.w3.org/2000/svg">
<path d="M3.00008 6.99998C2.86757 6.9981 2.73601 7.02259 2.61304 7.072C2.49007 7.12141 2.37815 7.19477 2.28378 7.28782C2.18941 7.38086 2.11447 7.49173 2.06333 7.61399C2.01218 7.73625 1.98584 7.86745 1.98584 7.99998C1.98584 8.1325 2.01218 8.26371 2.06333 8.38596C2.11447 8.50822 2.18941 8.61909 2.28378 8.71214C2.37815 8.80518 2.49007 8.87854 2.61304 8.92796C2.73601 8.97737 2.86757 9.00185 3.00008 8.99998H27.0001C27.1326 9.00185 27.2642 8.97737 27.3871 8.92796C27.5101 8.87854 27.622 8.80518 27.7164 8.71214C27.8108 8.61909 27.8857 8.50822 27.9368 8.38596C27.988 8.26371 28.0143 8.1325 28.0143 7.99998C28.0143 7.86745 27.988 7.73625 27.9368 7.61399C27.8857 7.49173 27.8108 7.38086 27.7164 7.28782C27.622 7.19477 27.5101 7.12141 27.3871 7.072C27.2642 7.02259 27.1326 6.9981 27.0001 6.99998H3.00008ZM3.00008 14C2.86757 13.9981 2.73601 14.0226 2.61304 14.072C2.49007 14.1214 2.37815 14.1948 2.28378 14.2878C2.18941 14.3809 2.11447 14.4917 2.06333 14.614C2.01218 14.7362 1.98584 14.8675 1.98584 15C1.98584 15.1325 2.01218 15.2637 2.06333 15.386C2.11447 15.5082 2.18941 15.6191 2.28378 15.7121C2.37815 15.8052 2.49007 15.8785 2.61304 15.928C2.73601 15.9774 2.86757 16.0019 3.00008 16H27.0001C27.1326 16.0019 27.2642 15.9774 27.3871 15.928C27.5101 15.8785 27.622 15.8052 27.7164 15.7121C27.8108 15.6191 27.8857 15.5082 27.9368 15.386C27.988 15.2637 28.0143 15.1325 28.0143 15C28.0143 14.8675 27.988 14.7362 27.9368 14.614C27.8857 14.4917 27.8108 14.3809 27.7164 14.2878C27.622 14.1948 27.5101 14.1214 27.3871 14.072C27.2642 14.0226 27.1326 13.9981 27.0001 14H3.00008ZM3.00008 21C2.86757 20.9981 2.73601 21.0226 2.61304 21.072C2.49007 21.1214 2.37815 21.1948 2.28378 21.2878C2.18941 21.3809 2.11447 21.4917 2.06333 21.614C2.01218 21.7362 1.98584 21.8675 1.98584 22C1.98584 22.1325 2.01218 22.2637 2.06333 22.386C2.11447 22.5082 2.18941 22.6191 2.28378 22.7121C2.37815 22.8052 2.49007 22.8785 2.61304 22.928C2.73601 22.9774 2.86757 23.0019 3.00008 23H27.0001C27.1326 23.0019 27.2642 22.9774 27.3871 22.928C27.5101 22.8785 27.622 22.8052 27.7164 22.7121C27.8108 22.6191 27.8857 22.5082 27.9368 22.386C27.988 22.2637 28.0143 22.1325 28.0143 22C28.0143 21.8675 27.988 21.7362 27.9368 21.614C27.8857 21.4917 27.8108 21.3809 27.7164 21.2878C27.622 21.1948 27.5101 21.1214 27.3871 21.072C27.2642 21.0226 27.1326 20.9981 27.0001 21H3.00008Z" fill="white"/>
</svg>
