<svg width="30" height="30" viewBox="0 0 30 30" fill="none" xmlns="http://www.w3.org/2000/svg">
<path d="M22.2 2.40234C20.8171 2.40227 19.4338 2.92933 18.3808 3.98203L15.3808 6.98203C13.8856 8.47723 13.4583 10.6364 14.0871 12.518L16.2422 10.3629C16.3322 9.74669 16.6043 9.15231 17.0777 8.67891L20.0777 5.67891C20.6627 5.09451 21.432 4.80117 22.2 4.80117C22.968 4.80117 23.7367 5.09391 24.3211 5.67891C25.4905 6.84891 25.4905 8.75169 24.3211 9.92109L21.3211 12.9211C20.8477 13.3945 20.2539 13.666 19.6371 13.7566L17.4808 15.9129C18.0376 16.0989 18.6174 16.1977 19.1988 16.1977C20.5818 16.1977 21.9649 15.671 23.0179 14.618L26.0179 11.618C28.1239 9.51257 28.1233 6.08743 26.0179 3.98203C24.9649 2.92963 23.5828 2.40242 22.2 2.40234ZM18.5765 10.1883C18.2648 10.1976 17.9689 10.3279 17.7515 10.5516L10.5515 17.7516C10.4364 17.8621 10.3444 17.9946 10.2811 18.1411C10.2177 18.2877 10.1843 18.4454 10.1826 18.6051C10.181 18.7647 10.2113 18.9231 10.2716 19.0709C10.332 19.2187 10.4212 19.353 10.5341 19.4659C10.647 19.5788 10.7813 19.668 10.9291 19.7284C11.0769 19.7887 11.2353 19.819 11.3949 19.8173C11.5546 19.8157 11.7123 19.7822 11.8588 19.7189C12.0054 19.6556 12.1378 19.5636 12.2484 19.4484L19.4484 12.2484C19.6218 12.0799 19.7402 11.8629 19.7882 11.6258C19.8362 11.3888 19.8114 11.1428 19.7171 10.9201C19.6229 10.6974 19.4636 10.5084 19.26 10.3778C19.0565 10.2472 18.8183 10.1812 18.5765 10.1883V10.1883ZM11.0695 13.8141C9.59826 13.7392 8.10385 14.2595 6.982 15.3809L3.982 18.3809C1.8766 20.4863 1.8766 23.9126 3.982 26.018C5.035 27.0704 6.41757 27.5965 7.79997 27.5965C9.18237 27.5965 10.5649 27.0698 11.6179 26.0168L14.6179 23.0168C16.1131 21.5216 16.5417 19.3625 15.9129 17.4809L13.7566 19.6371C13.6666 20.2533 13.3945 20.8477 12.9211 21.3211L9.92107 24.3211C8.75167 25.4911 6.84828 25.4911 5.67888 24.3211C4.50948 23.1511 4.50948 21.2483 5.67888 20.0789L8.67888 17.0789C9.15228 16.6055 9.74666 16.3328 10.3629 16.2422L12.5179 14.0871C12.0475 13.9299 11.5599 13.839 11.0695 13.8141Z" fill="white"/>
</svg>
