<svg width="30" height="30" viewBox="0 0 30 30" fill="none" xmlns="http://www.w3.org/2000/svg">
<path d="M17.6621 2C15.565 2 14 3.71314 14 5.66211V9.03516C11.2497 9.18109 8.73445 9.91436 6.72653 11.0645C5.95275 10.3214 4.91665 9.99145 3.91208 9.99219C2.82289 9.99299 1.70942 10.3704 0.941372 11.2344L0.923794 11.2539L0.906216 11.2734C0.169445 12.1942 -0.12229 13.4277 0.0741847 14.6523C0.253616 15.7707 0.901338 16.8934 2.02731 17.6289C2.01993 17.7531 1.99997 17.8746 1.99997 18C1.99997 22.962 7.83197 27 15 27C22.168 27 28 22.962 28 18C28 17.8746 27.98 17.7531 27.9726 17.6289C29.0986 16.8934 29.7463 15.7707 29.9257 14.6523C30.1222 13.4277 29.8305 12.1942 29.0937 11.2734L29.0761 11.2539L29.0586 11.2344C28.2904 10.3703 27.1771 9.99299 26.0879 9.99219C25.0832 9.99145 24.047 10.3211 23.2734 11.0645C21.2655 9.91436 18.7503 9.18109 16 9.03516V5.66211C16 4.68308 16.5652 4 17.6621 4C18.1828 4 18.8171 4.2609 19.8105 4.60938C20.6503 4.90396 21.7433 5.2017 23.1406 5.29102C23.4748 6.27909 24.4028 7 25.5 7C26.875 7 28 5.875 28 4.5C28 3.125 26.875 2 25.5 2C24.5612 2 23.7475 2.53042 23.3203 3.30078C22.1258 3.23463 21.2482 2.99471 20.4726 2.72266C19.5688 2.40563 18.7384 2 17.6621 2ZM3.91208 11.9922C4.30722 11.9919 4.68264 12.0956 4.99215 12.2637C3.88816 13.1852 3.05054 14.2618 2.54489 15.4375C2.2764 15.1061 2.11461 14.734 2.05075 14.3359C1.94298 13.6642 2.14399 12.966 2.46286 12.5527C2.76418 12.2284 3.31443 11.9926 3.91208 11.9922ZM26.0859 11.9922C26.6837 11.9926 27.2358 12.2285 27.5371 12.5527C27.8559 12.966 28.057 13.6642 27.9492 14.3359C27.8853 14.734 27.7235 15.1061 27.455 15.4375C26.9494 14.2618 26.1118 13.1852 25.0078 12.2637C25.3166 12.0958 25.6909 11.9919 26.0859 11.9922ZM9.99997 14C11.105 14 12 14.895 12 16C12 17.105 11.105 18 9.99997 18C8.89497 18 7.99997 17.105 7.99997 16C7.99997 14.895 8.89497 14 9.99997 14ZM20 14C21.105 14 22 14.895 22 16C22 17.105 21.105 18 20 18C18.895 18 18 17.105 18 16C18 14.895 18.895 14 20 14ZM20.2382 19.5332C19.5992 21.4002 17.556 23 15 23C12.444 23 10.4007 21.401 9.76168 19.668C10.9117 20.601 12.828 21.2676 15 21.2676C17.172 21.2676 19.0882 20.6002 20.2382 19.5332Z" fill="white"/>
</svg>
