<svg width="30" height="30" viewBox="0 0 30 30" fill="none" xmlns="http://www.w3.org/2000/svg">
<path d="M10 5C4.486 5 0 9.486 0 15C0 20.514 4.486 25 10 25C10.979 25 11.9234 24.8528 12.8184 24.5898C12.1634 24.0968 11.5605 23.5407 11.0195 22.9277C10.6845 22.9707 10.346 23 10 23C5.589 23 2 19.411 2 15C2 10.589 5.589 7 10 7C14.411 7 18 10.589 18 15C18 16.789 17.4022 18.4375 16.4062 19.7715C16.9442 20.1785 17.5471 20.4932 18.2031 20.7012C19.3321 19.0822 20 17.119 20 15C20 9.486 15.514 5 10 5ZM20 5C19.024 5 18.0825 5.1462 17.1895 5.4082C17.8435 5.9002 18.4434 6.45927 18.9844 7.07227C19.3184 7.02927 19.655 7 20 7C24.411 7 28 10.589 28 15C28 19.411 24.411 23 20 23C15.589 23 12 19.411 12 15C12 13.205 12.6015 11.5528 13.6035 10.2168C13.0665 9.8108 12.4626 9.49316 11.8066 9.28516C10.6716 10.9062 10 12.875 10 15C10 20.514 14.486 25 20 25C25.514 25 30 20.514 30 15C30 9.486 25.514 5 20 5Z" fill="white"/>
</svg>
