<svg width="30" height="30" viewBox="0 0 30 30" fill="none" xmlns="http://www.w3.org/2000/svg">
<path d="M18.125 7.5C15.752 7.5 13.75 8.63281 12.5 10.5078V21.25H25.625C27.998 21.25 30 19.248 30 16.875C30 14.502 27.998 12.5 25.625 12.5C25.376 12.5 25.0146 12.4902 24.7656 12.6172C24.0137 9.61914 21.25 7.5 18.125 7.5ZM10 10V21.25H11.25V10.1172C10.874 9.99023 10.376 10 10 10ZM8.75 10.1172C8.25195 10.2441 7.87598 10.498 7.5 10.625V21.25H8.75V10.1172ZM6.25 11.7578C5.625 12.3828 5.24414 13.1104 5.11719 13.9844H5V21.25H6.25V11.7578ZM3.75 13.75C3.25195 13.75 2.87598 13.8574 2.5 13.9844V21.0156C2.87598 21.1426 3.25195 21.25 3.75 21.25V13.75ZM1.25 14.7656C0.498047 15.3906 0 16.377 0 17.5C0 18.623 0.498047 19.6094 1.25 20.2344V14.7656Z" fill="white"/>
</svg>
